<?xml version="1.0" encoding="UTF-8" standalone="no"?>
<svg width="48px" height="39px" viewBox="0 0 48 39" version="1.1" xmlns="http://www.w3.org/2000/svg" xmlns:xlink="http://www.w3.org/1999/xlink" xmlns:sketch="http://www.bohemiancoding.com/sketch/ns">
    <!-- Generator: Sketch 3.0.3 (7892) - http://www.bohemiancoding.com/sketch -->
    <title>Rectangle 56@1x</title>
    <desc>Created with Sketch.</desc>
    <defs></defs>
    <g id="Welcome" stroke="none" stroke-width="1" fill="none" fill-rule="evenodd" sketch:type="MSPage">
        <g id="Desktop" sketch:type="MSArtboardGroup" transform="translate(-833.000000, -1325.000000)" stroke="#FFFFFF" stroke-width="2">
            <g id="Editable-Content" sketch:type="MSLayerGroup" transform="translate(106.000000, 897.000000)">
                <g id="Form" transform="translate(421.000000, 260.000000)" sketch:type="MSShapeGroup">
                    <g id="Message" transform="translate(306.000000, 168.000000)">
                        <path d="M8,30 L2.00138927,30 C0.894938439,30 0,29.1083227 0,28.008383 L0,1.99161703 C0,0.89784041 0.896052496,0 2.00138927,0 L45.9986107,0 C47.1050616,0 48,0.891677316 48,1.99161703 L48,28.008383 C48,29.1021596 47.1039475,30 45.9986107,30 L18,30 L9.41183966,38.5881603 C8.62827653,39.3717235 8,39.1007504 8,37.9914698 L8,30 Z" id="Rectangle-56"></path>
                        <rect id="Rectangle-58" fill="#FFFFFF" x="6" y="8" width="36" height="2"></rect>
                        <rect id="Rectangle-59" fill="#FFFFFF" x="6" y="14" width="36" height="2"></rect>
                        <rect id="Rectangle-60" fill="#FFFFFF" x="6" y="20" width="24" height="2"></rect>
                    </g>
                </g>
            </g>
        </g>
    </g>
</svg>